<svg id="Group_707" data-name="Group 707" xmlns="http://www.w3.org/2000/svg" width="19.53" height="19.5" viewBox="0 0 19.53 19.5">
  <path id="XMLID_195_" d="M126.616,209.475h4.051V222.5h-4.051ZM128.649,203a2.349,2.349,0,1,1-2.349,2.349A2.352,2.352,0,0,1,128.649,203" transform="translate(-126.3 -203)"/>
  <path id="XMLID_192_" d="M218.1,285.116h3.877V286.9h.053a4.253,4.253,0,0,1,3.832-2.1c4.1,0,4.856,2.7,4.856,6.2v7.137h-4.043v-6.332c0-1.513-.023-3.456-2.1-3.456-2.108,0-2.424,1.649-2.424,3.343v6.445h-4.043l-.008-13.025Z" transform="translate(-211.188 -278.641)"/>
</svg>
