<svg xmlns="http://www.w3.org/2000/svg" width="79.406" height="37.916" viewBox="0 0 79.406 37.916">
  <g id="Group_704" data-name="Group 704" transform="translate(-187 143)">
    <path id="Path_2332" data-name="Path 2332" d="M2,1.8H6.665V7.16h5.161V1.8h4.665V16.986H11.827V10.832H6.665v6.154H2Z" transform="translate(185 -144.8)" fill-rule="evenodd"/>
    <path id="Path_2333" data-name="Path 2333" d="M27.727,11.229,26.039,5.77l-1.687,5.459Zm.993,3.276h-5.36l-.695,2.481H17.9L23.558,1.8H28.62l5.658,15.186H29.414Z" transform="translate(184.882 -144.8)" fill-rule="evenodd"/>
    <path id="Path_2334" data-name="Path 2334" d="M40.364,13.711h2.382a2.483,2.483,0,0,0,1.687-.4,1.644,1.644,0,0,0,.5-1.191,1.422,1.422,0,0,0-.5-1.092,2.483,2.483,0,0,0-1.687-.4H40.364Zm0-5.955h2.084a2.06,2.06,0,0,0,1.489-.4,1.356,1.356,0,0,0,.4-1.092,1.151,1.151,0,0,0-.4-.993,2.06,2.06,0,0,0-1.489-.4H40.364ZM35.6,1.8h8.735a4.917,4.917,0,0,1,3.375,1.092A3.4,3.4,0,0,1,48.9,5.572a3.539,3.539,0,0,1-.794,2.283,3.634,3.634,0,0,1-1.588.993,4.036,4.036,0,0,1,2.382,1.39,3.622,3.622,0,0,1,.794,2.382,3.67,3.67,0,0,1-.6,2.084,5.317,5.317,0,0,1-1.489,1.489,5.6,5.6,0,0,1-1.787.5c-1.092.1-1.787.2-2.084.2H35.6V1.8Z" transform="translate(184.751 -144.8)" fill-rule="evenodd"/>
    <path id="Path_2335" data-name="Path 2335" d="M51.8,1.8H64.406V5.076H56.564V7.458H63.81v3.077H56.564v2.978H64.6v3.474H51.8Z" transform="translate(184.63 -144.8)" fill-rule="evenodd"/>
    <path id="Path_2336" data-name="Path 2336" d="M71.665,7.954H73.65c.2,0,.6-.1,1.29-.2a1.364,1.364,0,0,0,.794-.5,1.982,1.982,0,0,0,.2-.893,1.281,1.281,0,0,0-.5-1.092,2.626,2.626,0,0,0-1.787-.4H71.566V7.954ZM67,16.986V1.8h7.841a9.084,9.084,0,0,1,3.275.4A2.806,2.806,0,0,1,79.9,3.587,4.063,4.063,0,0,1,80.6,6.068a5.053,5.053,0,0,1-.5,2.184,5.317,5.317,0,0,1-1.489,1.489,10.639,10.639,0,0,1-1.687.6,3.232,3.232,0,0,1,1.191.6,5.676,5.676,0,0,1,.794.794c.3.4.6.695.695.893l2.283,4.367H76.628l-2.481-4.665a3.069,3.069,0,0,0-.893-1.191,2.128,2.128,0,0,0-1.191-.4h-.4v6.154H67Z" transform="translate(184.518 -144.8)" fill-rule="evenodd"/>
    <path id="Path_2337" data-name="Path 2337" d="M2,24.4H16.293v3.772H11.429V39.586H6.764V28.172H2Z" transform="translate(185 -144.968)" fill-rule="evenodd"/>
    <path id="Path_2338" data-name="Path 2338" d="M32.627,24.4h4.665v9.032a7.4,7.4,0,0,1-.4,2.581A5.668,5.668,0,0,1,35.6,38.1a5.819,5.819,0,0,1-1.886,1.29,10.341,10.341,0,0,1-3.276.5,21,21,0,0,1-2.382-.2,6.34,6.34,0,0,1-2.184-.6A6.48,6.48,0,0,1,24.29,37.8a5.383,5.383,0,0,1-.993-1.787,8.613,8.613,0,0,1-.4-2.581V24.4h4.665v9.231a2.7,2.7,0,0,0,.695,1.985,2.471,2.471,0,0,0,1.886.695,2.335,2.335,0,0,0,1.886-.695,2.559,2.559,0,0,0,.695-1.985V24.4Z" transform="translate(184.845 -144.968)" fill-rule="evenodd"/>
    <path id="Path_2339" data-name="Path 2339" d="M49.664,30.554H51.65c.2,0,.6-.1,1.29-.2a1.364,1.364,0,0,0,.794-.5,1.6,1.6,0,0,0,.3-.893,1.281,1.281,0,0,0-.5-1.092,2.626,2.626,0,0,0-1.787-.4H49.664ZM44.9,39.586V24.4h7.841a10.072,10.072,0,0,1,3.375.4A3.779,3.779,0,0,1,58,26.187a4.063,4.063,0,0,1,.695,2.481,5.053,5.053,0,0,1-.5,2.184,5.316,5.316,0,0,1-1.489,1.489,10.638,10.638,0,0,1-1.687.6,3.233,3.233,0,0,1,1.191.6,5.676,5.676,0,0,1,.794.794c.3.4.6.695.695.893l2.283,4.367H54.727l-2.68-4.665a3.069,3.069,0,0,0-.893-1.191,2.128,2.128,0,0,0-1.191-.4h-.4v6.154H44.9Z" transform="translate(184.682 -144.968)" fill-rule="evenodd"/>
    <path id="Path_2340" data-name="Path 2340" d="M65.8,24.4h4.665v5.757L75.428,24.4h6.154l-5.459,5.757,5.757,9.429H76.123l-3.276-6.253-2.382,2.581v3.673H65.8Z" transform="translate(184.527 -144.968)" fill-rule="evenodd"/>
    <rect id="Rectangle_192" data-name="Rectangle 192" width="79.406" height="2.73" transform="translate(187 -126.027)"/>
  </g>
</svg>
