<svg xmlns="http://www.w3.org/2000/svg" width="22" height="19.025" viewBox="0 0 22 19.025">
  <path id="Path_2319" data-name="Path 2319" d="M27.845,23.3v.83l-.8-.1a12.741,12.741,0,0,1-7.58-3.9l-1.055-1.1-.267.8a5.006,5.006,0,0,0,.984,4.964c.633.7.492.8-.6.38A1.814,1.814,0,0,0,17.777,25a6.23,6.23,0,0,0,.577,2.25,5.245,5.245,0,0,0,2.18,2.152l.773.38h-.858c-.886,0-.928,0-.83.366A4.894,4.894,0,0,0,22.6,32.958l.984.352-.858.534a8.663,8.663,0,0,1-4.219,1.237,4.514,4.514,0,0,0-1.308.141A11.883,11.883,0,0,0,20.266,36.7,12.937,12.937,0,0,0,30.7,35.461,14.442,14.442,0,0,0,36,28.95a17.986,17.986,0,0,0,1.083-5.034,1.969,1.969,0,0,1,.928-1.8,10.828,10.828,0,0,0,1.111-1.294c.155-.323.141-.323-.675,0-1.406.506-1.547.436-.872-.323a4.922,4.922,0,0,0,1.083-1.8.83.83,0,0,0-.506.183,8.648,8.648,0,0,1-1.406.577l-.858.281-.773-.548a6.384,6.384,0,0,0-1.406-.745,5.217,5.217,0,0,0-2.812,0,4.809,4.809,0,0,0-3.108,4.837h0Z" transform="translate(-17.2 -18.253)" fill="#fff"/>
</svg>
